HIERARCHY
ROOT root
{
	OFFSET	0	13.1	24.9
	CHANNELS 6  Xposition Yposition Zposition Xrotation Yrotation Zrotation
	JOINT spine_1
	{
		OFFSET	0	9.99999	0
		CHANNELS 3  Xrotation Yrotation Zrotation
		JOINT spine_2
		{
			OFFSET	0	112	-10
			CHANNELS 3  Xrotation Yrotation Zrotation
			JOINT spine_3
			{
				OFFSET	0	206.5	19.3
				CHANNELS 3  Xrotation Yrotation Zrotation
				JOINT spine_4
				{
					OFFSET	0	110.4	14.6
					CHANNELS 3  Xrotation Yrotation Zrotation
					JOINT neck_1
					{
						OFFSET	0	71.8	-50.3
						CHANNELS 3  Xrotation Yrotation Zrotation
						JOINT neck_2
						{
							OFFSET	0	86.2	-25.8
							CHANNELS 3  Xrotation Yrotation Zrotation
							JOINT head_ee
							{
								OFFSET	0	179.8	-8.7
								CHANNELS 3  Xrotation Yrotation Zrotation
								End Site
								{
									OFFSET	1	0	0
								}
							}
						}
					}
					JOINT left_clavicle
					{
						OFFSET	-43.2	22.4	-70.8
						CHANNELS 3  Xrotation Yrotation Zrotation
						JOINT left_shoulder
						{
							OFFSET	-93.9	-5.79999	48.7
							CHANNELS 3  Xrotation Yrotation Zrotation
							JOINT left_elbow
							{
								OFFSET	-291.4	-30.8	15.2
								CHANNELS 3  Xrotation Yrotation Zrotation
								JOINT left_lowarm_twist
								{
									OFFSET	-110.7	-3.89999	13.6
									CHANNELS 3  Xrotation Yrotation Zrotation
									JOINT left_hand
									{
										OFFSET	-110.7	-3.89999	13.6
										CHANNELS 3  Xrotation Yrotation Zrotation
										JOINT left_ee
										{
											OFFSET	-80.8	-5.10001	12.1
											CHANNELS 3  Xrotation Yrotation Zrotation
											End Site
											{
												OFFSET	1	0	0
											}
										}
									}
								}
							}
						}
					}
					JOINT right_clavicle
					{
						OFFSET	43.2	22.4	-70.8
						CHANNELS 3  Xrotation Yrotation Zrotation
						JOINT right_shoulder
						{
							OFFSET	93.9	-5.79999	48.7
							CHANNELS 3  Xrotation Yrotation Zrotation
							JOINT right_elbow
							{
								OFFSET	291.4	-30.8	15.2
								CHANNELS 3  Xrotation Yrotation Zrotation
								JOINT right_lowarm_twist
								{
									OFFSET	110.7	-3.89999	13.6
									CHANNELS 3  Xrotation Yrotation Zrotation
									JOINT right_hand
									{
										OFFSET	110.7	-3.89999	13.6
										CHANNELS 3  Xrotation Yrotation Zrotation
										JOINT right_ee
										{
											OFFSET	80.8	-5.10001	12.1
											CHANNELS 3  Xrotation Yrotation Zrotation
											End Site
											{
												OFFSET	1	0	0
											}
										}
									}
								}
							}
						}
					}
				}
			}
		}
	}
	JOINT left_hip
	{
		OFFSET	-82.8	-127.5	0.300001
		CHANNELS 3  Xrotation Yrotation Zrotation
		JOINT left_knee
		{
			OFFSET	-28.2	-396.7	2.2
			CHANNELS 3  Xrotation Yrotation Zrotation
			JOINT left_ankle
			{
				OFFSET	-11.7	-411.3	35.4
				CHANNELS 3  Xrotation Yrotation Zrotation
				JOINT left_toes
				{
					OFFSET	0	-60	-88.6
					CHANNELS 3  Xrotation Yrotation Zrotation
					JOINT left_foot_ee
					{
						OFFSET	-22.5	-16.5	-42.2
						CHANNELS 3  Xrotation Yrotation Zrotation
						End Site
						{
							OFFSET	1	0	0
						}
					}
				}
			}
		}
	}
	JOINT right_hip
	{
		OFFSET	82.8	-127.5	0.300001
		CHANNELS 3  Xrotation Yrotation Zrotation
		JOINT right_knee
		{
			OFFSET	28.2	-396.7	2.2
			CHANNELS 3  Xrotation Yrotation Zrotation
			JOINT right_ankle
			{
				OFFSET	11.7	-411.3	35.4
				CHANNELS 3  Xrotation Yrotation Zrotation
				JOINT right_toes
				{
					OFFSET	0	-60	-88.6
					CHANNELS 3  Xrotation Yrotation Zrotation
					JOINT right_foot_ee
					{
						OFFSET	22.5	-16.5	-42.2
						CHANNELS 3  Xrotation Yrotation Zrotation
						End Site
						{
							OFFSET	1	0	0
						}
					}
				}
			}
		}
	}
}
MOTION
Frames: 14
Frame Time: 0.02
840.600739479 637.027 -1807.54013115 4.29549641196 32.4238858843 12.0054599603 -0.55617 -0.893661 -3.7891 -0.54842 -0.650922 -3.83819 -0.498818 0.203969 -3.88757 -0.519667 -0.41209 -3.87107 -6.91529 0.584801 5.58945 -6.82317 -2.96325 5.71461 -0.0 0.0 -0.0 9.19772 -10.8255 18.0694 -7.48684 -4.05245 51.0278 1.97136 -44.3155 0.802867 19.3012 0.271568 -2.43896 1.05915 -15.217 0.637183 -0.0 0.0 -0.0 8.95947 -6.2504 -17.2162 -23.9763 17.2396 -50.7991 0.633012 17.4103 -0.0969235 67.0428 2.43943 7.71776 -1.16653 -19.0136 -0.685811 0.0 0.0 0.0 5.09211 -13.8629 -18.3561 -9.32547 0.270187 1.40409 30.7933 7.50859 -3.97355 28.9808 -0.0 -0.0 -0.0 0.0 -0.0 16.2976 19.6078 -24.6764 -27.0342 -0.146188 -4.10779 36.9863 32.2767 5.77792 40.0043 -0.0 -0.0 0.0 0.0 0.0 
787.645224871 640.898 -1837.80197482 7.1531832003 38.3246675621 11.4490804817 -0.444758 -0.894972 -3.86827 -0.436667 -0.647205 -3.91727 -0.386469 0.217132 -3.96436 -0.40816 -0.41119 -3.94898 -7.37781 0.226379 1.4403 -7.37179 -0.611195 1.48222 -0.0 0.0 -0.0 9.18832 -10.9236 18.0465 -4.21474 -1.51015 52.9696 2.0261 -45.0998 0.841378 13.9511 0.278996 -1.75591 2.26256 -27.5092 2.87996 -0.0 0.0 -0.0 8.34166 -5.74618 -16.0631 -24.8709 17.9271 -52.9518 0.649483 17.8349 -0.10191 69.5613 2.69498 7.91548 -0.00262894 -18.2168 -7.37594 0.0 0.0 0.0 2.22764 -7.78484 -22.4268 -12.3918 0.3087 1.87296 32.2426 -3.18675 -4.17497 23.2262 -0.0 -0.0 -0.0 0.0 -0.0 14.4132 10.2049 -19.6843 -26.8875 -0.150641 -4.08572 37.0322 29.766 5.60138 39.899 -0.0 -0.0 0.0 0.0 0.0 
765.362300336 627.481 -1838.11065712 5.19184278723 42.0232323455 11.7648334777 0.130304 -0.889329 -3.5595 0.137109 -0.661178 -3.60879 0.182733 0.100052 -3.66742 0.164289 -0.480013 -3.63729 -6.42801 -2.4144 1.72445 -6.41466 -5.73162 1.26605 -0.0 0.0 -0.0 9.74433 -12.8555 19.2078 -1.34642 -3.24941 51.5335 1.94441 -43.9215 0.784105 7.85207 0.209753 -0.980301 1.93151 -17.1826 5.60328 -0.0 0.0 -0.0 8.21243 -4.54795 -15.871 -25.6652 21.256 -53.2428 0.518839 14.4142 -0.0656104 68.9644 2.63363 7.86963 -0.477054 -24.2069 -6.89294 0.0 0.0 0.0 9.75693 6.13981 -19.934 -14.4037 0.320315 2.1814 30.3831 -6.68517 -4.02808 18.9846 -0.0 -0.0 -0.0 0.0 -0.0 25.4128 22.8789 -24.7071 -31.3705 0.0108629 -4.75458 38.4281 23.3657 5.3649 40.2172 -0.0 -0.0 0.0 0.0 0.0 
751.071384515 632.93 -1828.16447015 3.6006937332 49.4126512412 10.6075827286 0.0249554 -0.869517 -3.13607 0.0301784 -0.668302 -3.18498 0.0707081 0.0116618 -3.25425 0.0562826 -0.502162 -3.21533 -5.01642 -3.79233 0.180488 -5.00502 -7.10784 -0.4729 -0.0 0.0 -0.0 10.7778 -15.7149 21.4 -1.67866 -4.88741 52.5851 1.84584 -42.4348 0.716652 2.55489 0.0829859 -0.315745 2.16539 -11.8677 9.59268 -0.0 0.0 -0.0 8.42538 -3.2153 -16.3406 -25.5106 24.5589 -52.6405 0.544275 15.0893 -0.0720874 67.2722 2.46234 7.73623 -1.28328 -25.5958 -2.90543 0.0 0.0 0.0 16.8422 20.091 -19.2859 -15.1226 0.321838 2.29169 27.5047 -10.9601 -3.78714 14.3111 -0.0 -0.0 -0.0 0.0 -0.0 34.3884 37.941 -27.3716 -40.0789 0.471794 -6.00932 36.904 19.1359 5.02806 37.3897 -0.0 -0.0 0.0 0.0 0.0 
746.843795136 635.744 -1827.08059788 3.43571684635 50.7096225894 10.4867747469 -0.00603858 -0.765188 -3.075 -0.000957859 -0.568065 -3.1174 0.0331329 0.0978003 -3.16718 0.0193631 -0.403372 -3.14293 -4.36979 -4.26244 -1.04725 -4.35572 -7.01264 -1.77247 -0.0 0.0 -0.0 10.7504 -16.6119 21.2962 -2.75977 -4.74961 53.5589 1.85618 -42.5942 0.723638 2.67781 0.0866221 -0.331026 2.47517 -14.0798 10.7046 -0.0 0.0 -0.0 8.45065 -3.95522 -16.3588 -25.8878 25.3058 -51.8448 0.581693 16.0747 -0.0821389 66.2334 2.35918 7.65187 -1.34134 -22.6093 -1.25356 0.0 0.0 0.0 17.3493 22.6901 -19.6672 -14.4801 0.320543 2.19312 27.5205 -14.7459 -3.87692 12.7758 -0.0 -0.0 -0.0 0.0 -0.0 34.8508 38.2974 -26.5344 -38.2346 0.358292 -5.74955 35.4304 19.7582 4.90636 36.1945 -0.0 -0.0 0.0 0.0 0.0 
748.381222425 635.744 -1830.16993195 3.39233275778 50.1082012773 10.5430721679 -0.00603858 -0.765188 -3.075 -0.000957859 -0.568065 -3.1174 0.0331329 0.0978003 -3.16718 0.0193631 -0.403372 -3.14293 -4.36979 -4.26244 -1.04725 -4.35572 -7.01264 -1.77247 -0.0 0.0 -0.0 10.7504 -16.6119 21.2962 -2.75977 -4.74961 53.5589 1.85618 -42.5942 0.723638 2.67781 0.0866221 -0.331026 2.47517 -14.0798 10.7046 -0.0 0.0 -0.0 8.45065 -3.95522 -16.3588 -25.8878 25.3058 -51.8448 0.581693 16.0747 -0.0821389 66.2334 2.35918 7.65187 -1.34134 -22.6093 -1.25356 0.0 0.0 0.0 17.3493 22.6901 -19.6672 -14.4801 0.320543 2.19312 27.5205 -14.7459 -3.87692 12.7758 -0.0 -0.0 -0.0 0.0 -0.0 34.8508 38.2974 -26.5344 -38.2346 0.358292 -5.74955 35.4304 19.7582 4.90636 36.1945 -0.0 -0.0 0.0 0.0 0.0 
749.141060622 635.744 -1831.66730737 3.37174898733 49.8155412829 10.5699573026 -0.00603858 -0.765188 -3.075 -0.000957859 -0.568065 -3.1174 0.0331329 0.0978003 -3.16718 0.0193631 -0.403372 -3.14293 -4.36979 -4.26244 -1.04725 -4.35572 -7.01264 -1.77247 -0.0 0.0 -0.0 10.7504 -16.6119 21.2962 -2.75977 -4.74961 53.5589 1.85618 -42.5942 0.723638 2.67781 0.0866221 -0.331026 2.47517 -14.0798 10.7046 -0.0 0.0 -0.0 8.45065 -3.95522 -16.3588 -25.8878 25.3058 -51.8448 0.581693 16.0747 -0.0821389 66.2334 2.35918 7.65187 -1.34134 -22.6093 -1.25356 0.0 0.0 0.0 17.3493 22.6901 -19.6672 -14.4801 0.320543 2.19312 27.5205 -14.7459 -3.87692 12.7758 -0.0 -0.0 -0.0 0.0 -0.0 34.8508 38.2974 -26.5344 -38.2346 0.358292 -5.74955 35.4304 19.7582 4.90636 36.1945 -0.0 -0.0 0.0 0.0 0.0 
749.282428121 635.744 -1831.94381283 3.36797903913 49.7614145322 10.574893946 -0.00603858 -0.765188 -3.075 -0.000957859 -0.568065 -3.1174 0.0331329 0.0978003 -3.16718 0.0193631 -0.403372 -3.14293 -4.36979 -4.26244 -1.04725 -4.35572 -7.01264 -1.77247 -0.0 0.0 -0.0 10.7504 -16.6119 21.2962 -2.75977 -4.74961 53.5589 1.85618 -42.5942 0.723638 2.67781 0.0866221 -0.331026 2.47517 -14.0798 10.7046 -0.0 0.0 -0.0 8.45065 -3.95522 -16.3588 -25.8878 25.3058 -51.8448 0.581693 16.0747 -0.0821389 66.2334 2.35918 7.65187 -1.34134 -22.6093 -1.25356 0.0 0.0 0.0 17.3493 22.6901 -19.6672 -14.4801 0.320543 2.19312 27.5205 -14.7459 -3.87692 12.7758 -0.0 -0.0 -0.0 0.0 -0.0 34.8508 38.2974 -26.5344 -38.2346 0.358292 -5.74955 35.4304 19.7582 4.90636 36.1945 -0.0 -0.0 0.0 0.0 0.0 
737.908176821 628.693 -1834.63078764 1.23943940385 51.9451613642 11.3099350646 0.274858 -0.61441 -3.16145 0.280324 -0.412099 -3.19409 0.305979 0.251329 -3.21073 0.291688 -0.258632 -3.21015 0.140216 -3.85784 -0.377356 0.170155 -6.55846 -0.808023 -0.0 0.0 -0.0 10.7967 -18.3433 21.3046 -4.56091 -3.52228 54.2238 1.60795 -38.5355 0.562111 5.27287 0.155711 -0.655291 2.99278 -18.5271 12.1115 -0.0 0.0 -0.0 8.67787 -4.83382 -16.7577 -26.1091 26.8308 -51.0875 0.643084 17.6702 -0.0999588 64.4502 2.18574 7.50277 -0.951591 -14.4732 -0.00589876 0.0 0.0 0.0 22.4418 25.0306 -22.3855 -19.9768 0.295915 3.03581 31.4629 -19.775 -4.48494 10.6896 -0.0 -0.0 -0.0 0.0 -0.0 32.0621 35.7444 -24.7385 -36.7742 0.274398 -5.54138 36.7236 22.5454 5.15803 34.1714 -0.0 -0.0 0.0 0.0 0.0 
738.996592474 628.693 -1836.78187912 1.22832994734 51.5384264642 11.3240830355 0.274858 -0.61441 -3.16145 0.280324 -0.412099 -3.19409 0.305979 0.251329 -3.21073 0.291688 -0.258632 -3.21015 0.140216 -3.85784 -0.377356 0.170155 -6.55846 -0.808023 -0.0 0.0 -0.0 10.7967 -18.3433 21.3046 -4.56091 -3.52228 54.2238 1.60795 -38.5355 0.562111 5.27287 0.155711 -0.655291 2.99278 -18.5271 12.1115 -0.0 0.0 -0.0 8.67787 -4.83382 -16.7577 -26.1091 26.8308 -51.0875 0.643084 17.6702 -0.0999588 64.4502 2.18574 7.50277 -0.951591 -14.4732 -0.00589876 0.0 0.0 0.0 22.4418 25.0306 -22.3855 -19.9768 0.295915 3.03581 31.4629 -19.775 -4.48494 10.6896 -0.0 -0.0 -0.0 0.0 -0.0 32.0621 35.7444 -24.7385 -36.7742 0.274398 -5.54138 36.7236 22.5454 5.15803 34.1714 -0.0 -0.0 0.0 0.0 0.0 
738.703008025 628.693 -1836.20537531 1.2312855833 51.6475773314 11.3203112536 0.274858 -0.61441 -3.16145 0.280324 -0.412099 -3.19409 0.305979 0.251329 -3.21073 0.291688 -0.258632 -3.21015 0.140216 -3.85784 -0.377356 0.170155 -6.55846 -0.808023 -0.0 0.0 -0.0 10.7967 -18.3433 21.3046 -4.56091 -3.52228 54.2238 1.60795 -38.5355 0.562111 5.27287 0.155711 -0.655291 2.99278 -18.5271 12.1115 -0.0 0.0 -0.0 8.67787 -4.83382 -16.7577 -26.1091 26.8308 -51.0875 0.643084 17.6702 -0.0999588 64.4502 2.18574 7.50277 -0.951591 -14.4732 -0.00589876 0.0 0.0 0.0 22.4418 25.0306 -22.3855 -19.9768 0.295915 3.03581 31.4629 -19.775 -4.48494 10.6896 -0.0 -0.0 -0.0 0.0 -0.0 32.0621 35.7444 -24.7385 -36.7742 0.274398 -5.54138 36.7236 22.5454 5.15803 34.1714 -0.0 -0.0 0.0 0.0 0.0 
734.001894501 625.864 -1840.68282153 -0.291161766345 51.5692485347 12.1929979053 0.396158 -0.561218 -3.12014 0.401501 -0.361639 -3.14949 0.423749 0.285145 -3.15733 0.409905 -0.216817 -3.16275 2.23083 -3.283 0.567049 2.27069 -6.23422 0.366194 -0.0 0.0 -0.0 10.7516 -19.1302 21.1527 -5.74655 -3.77361 54.0656 1.48654 -36.3651 0.488272 6.61119 0.18558 -0.823637 3.29527 -20.2442 13.2996 -0.0 0.0 -0.0 8.7788 -5.06282 -16.9407 -25.8025 27.6864 -50.9342 0.680397 18.6264 -0.111581 64.2196 2.16365 7.4831 -0.633866 -10.8666 -0.450375 0.0 0.0 0.0 24.7106 25.4009 -23.9383 -24.2634 0.220719 3.68914 33.3792 -22.9416 -4.8273 9.26656 -0.0 -0.0 -0.0 0.0 -0.0 32.5 36.7583 -25.5903 -36.5188 0.260278 -5.50477 38.1042 21.6263 5.25021 33.324 -0.0 -0.0 0.0 0.0 0.0 
736.932077689 625.864 -1846.24918003 -0.284681503678 50.5268111043 12.1846653638 0.396158 -0.561218 -3.12014 0.401501 -0.361639 -3.14949 0.423749 0.285145 -3.15733 0.409905 -0.216817 -3.16275 2.23083 -3.283 0.567049 2.27069 -6.23422 0.366194 -0.0 0.0 -0.0 10.7516 -19.1302 21.1527 -5.74655 -3.77361 54.0656 1.48654 -36.3651 0.488272 6.61119 0.18558 -0.823637 3.29527 -20.2442 13.2996 -0.0 0.0 -0.0 8.7788 -5.06282 -16.9407 -25.8025 27.6864 -50.9342 0.680397 18.6264 -0.111581 64.2196 2.16365 7.4831 -0.633866 -10.8666 -0.450375 0.0 0.0 0.0 24.7106 25.4009 -23.9383 -24.2634 0.220719 3.68914 33.3792 -22.9416 -4.8273 9.26656 -0.0 -0.0 -0.0 0.0 -0.0 32.5 36.7583 -25.5903 -36.5188 0.260278 -5.50477 38.1042 21.6263 5.25021 33.324 -0.0 -0.0 0.0 0.0 0.0 
743.585556844 633.223 -1845.38416768 -1.57499322967 49.2712266079 13.3237578212 0.32174 -0.523754 -3.08335 0.32697 -0.326589 -3.11039 0.347081 0.31574 -3.11151 0.333617 -0.17938 -3.12233 3.05461 -2.93024 1.08553 3.10034 -6.03074 1.00617 -0.0 0.0 -0.0 10.7362 -19.6645 21.0818 -6.5454 -3.93671 54.2872 1.40573 -34.8498 0.44122 8.27403 0.2172 -1.03369 3.57376 -22.1934 14.1657 -0.0 0.0 -0.0 8.80682 -5.18878 -16.9878 -25.6572 28.2569 -50.8236 0.706466 19.2882 -0.12005 63.7313 2.11714 7.44115 -0.380582 -7.77471 -0.766972 0.0 0.0 0.0 28.7639 25.1915 -24.6354 -27.5352 0.130553 4.18308 34.9074 -25.1903 -5.10241 7.68904 -0.0 -0.0 -0.0 0.0 -0.0 34.977 40.8908 -27.8131 -32.5216 0.0607467 -4.92417 38.3051 19.0039 5.1567 32.5119 -0.0 -0.0 0.0 0.0 0.0 
